<svg width="460px" height="701px"
 viewBox="0.00 0.00 460.06 701.00" xmlns="http://www.w3.org/2000/svg" xmlns:xlink="http://www.w3.org/1999/xlink">
<g id="graph0" class="graph" transform="scale(1.0 1.0) rotate(0) translate(4 697)">
<title>de.uniks.stp.model</title>
<polygon fill="white" stroke="transparent" points="-4,4 -4,-697 456.06,-697 456.06,4 -4,4"/>
<!-- AudioMember -->
<g id="node1" class="node">
<title>AudioMember</title>
<polygon fill="none" stroke="black" points="214.5,-59.5 214.5,-81.5 302.5,-81.5 302.5,-59.5 214.5,-59.5"/>
<text text-anchor="start" x="217.29" y="-65.9" font-family="Times,serif" font-size="14.00">AudioMember</text>
<polygon fill="none" stroke="black" points="214.5,-20.5 214.5,-59.5 302.5,-59.5 302.5,-20.5 214.5,-20.5"/>
<text text-anchor="start" x="222.53" y="-43.9" font-family="Times,serif" font-size="14.00">id :String</text>
<text text-anchor="start" x="222.53" y="-27.1" font-family="Times,serif" font-size="14.00">name :String</text>
</g>
<!-- ServerChannel -->
<g id="node7" class="node">
<title>ServerChannel</title>
<polygon fill="none" stroke="black" points="176.5,-233 176.5,-255 341.5,-255 341.5,-233 176.5,-233"/>
<text text-anchor="start" x="217.41" y="-239.4" font-family="Times,serif" font-size="14.00">ServerChannel</text>
<polygon fill="none" stroke="black" points="176.5,-143 176.5,-233 341.5,-233 341.5,-143 176.5,-143"/>
<text text-anchor="start" x="179.5" y="-217.4" font-family="Times,serif" font-size="14.00">name :String</text>
<text text-anchor="start" x="179.5" y="-200.6" font-family="Times,serif" font-size="14.00">id :String</text>
<text text-anchor="start" x="179.5" y="-183.8" font-family="Times,serif" font-size="14.00">unreadMessagesCounter :int</text>
<text text-anchor="start" x="179.5" y="-167" font-family="Times,serif" font-size="14.00">privilege :boolean</text>
<text text-anchor="start" x="179.5" y="-150.2" font-family="Times,serif" font-size="14.00">type :String</text>
</g>
<!-- AudioMember&#45;&gt;ServerChannel -->
<g id="edge1" class="edge">
<title>AudioMember&#45;&gt;ServerChannel</title>
<path fill="none" stroke="black" d="M258.5,-86.25C258.5,-101.86 258.5,-120.88 258.5,-138.77"/>
<text text-anchor="middle" x="236.73" y="-126.17" font-family="Times,serif" font-size="14.00">channel</text>
<text text-anchor="middle" x="303.02" y="-90.45" font-family="Times,serif" font-size="14.00">audioMember *</text>
</g>
<!-- Categories -->
<g id="node2" class="node">
<title>Categories</title>
<polygon fill="none" stroke="black" points="345.5,-59.5 345.5,-81.5 422.5,-81.5 422.5,-59.5 345.5,-59.5"/>
<text text-anchor="start" x="354.07" y="-65.9" font-family="Times,serif" font-size="14.00">Categories</text>
<polygon fill="none" stroke="black" points="345.5,-20.5 345.5,-59.5 422.5,-59.5 422.5,-20.5 345.5,-20.5"/>
<text text-anchor="start" x="348.5" y="-43.9" font-family="Times,serif" font-size="14.00">name :String</text>
<text text-anchor="start" x="348.5" y="-27.1" font-family="Times,serif" font-size="14.00">id :String</text>
</g>
<!-- Server -->
<g id="node6" class="node">
<title>Server</title>
<polygon fill="none" stroke="black" points="310.5,-511 310.5,-533 392.5,-533 392.5,-511 310.5,-511"/>
<text text-anchor="start" x="333.23" y="-517.4" font-family="Times,serif" font-size="14.00">Server</text>
<polygon fill="none" stroke="black" points="310.5,-455 310.5,-511 392.5,-511 392.5,-455 310.5,-455"/>
<text text-anchor="start" x="313.5" y="-495.4" font-family="Times,serif" font-size="14.00">name :String</text>
<text text-anchor="start" x="313.5" y="-478.6" font-family="Times,serif" font-size="14.00">id :String</text>
<text text-anchor="start" x="313.5" y="-461.8" font-family="Times,serif" font-size="14.00">owner :String</text>
</g>
<!-- Categories&#45;&gt;Server -->
<g id="edge2" class="edge">
<title>Categories&#45;&gt;Server</title>
<path fill="none" stroke="black" d="M384.82,-86.2C386.8,-150.5 388.66,-295.01 371.5,-415 369.82,-426.76 367.05,-439.31 364.1,-450.83"/>
<text text-anchor="middle" x="347" y="-438.23" font-family="Times,serif" font-size="14.00">server</text>
<text text-anchor="middle" x="418.44" y="-90.4" font-family="Times,serif" font-size="14.00">categories *</text>
</g>
<!-- Categories&#45;&gt;ServerChannel -->
<g id="edge3" class="edge">
<title>Categories&#45;&gt;ServerChannel</title>
<path fill="none" stroke="black" d="M354.51,-86.25C341.09,-101.86 324.76,-120.88 309.39,-138.77"/>
<text text-anchor="middle" x="336.4" y="-126.17" font-family="Times,serif" font-size="14.00">channel *</text>
<text text-anchor="middle" x="354.51" y="-90.45" font-family="Times,serif" font-size="14.00">categories</text>
</g>
<!-- CurrentUser -->
<g id="node3" class="node">
<title>CurrentUser</title>
<polygon fill="none" stroke="black" points="246.5,-389 246.5,-411 355.5,-411 355.5,-389 246.5,-389"/>
<text text-anchor="start" x="266.41" y="-395.4" font-family="Times,serif" font-size="14.00">CurrentUser</text>
<polygon fill="none" stroke="black" points="246.5,-299 246.5,-389 355.5,-389 355.5,-299 246.5,-299"/>
<text text-anchor="start" x="249.5" y="-373.4" font-family="Times,serif" font-size="14.00">name :String</text>
<text text-anchor="start" x="249.5" y="-356.6" font-family="Times,serif" font-size="14.00">userKey :String</text>
<text text-anchor="start" x="249.5" y="-339.8" font-family="Times,serif" font-size="14.00">password :String</text>
<text text-anchor="start" x="249.5" y="-323" font-family="Times,serif" font-size="14.00">id :String</text>
<text text-anchor="start" x="249.5" y="-306.2" font-family="Times,serif" font-size="14.00">description :String</text>
</g>
<!-- PrivateChat -->
<g id="node5" class="node">
<title>PrivateChat</title>
<polygon fill="none" stroke="black" points="8.5,-511 8.5,-533 173.5,-533 173.5,-511 8.5,-511"/>
<text text-anchor="start" x="57.95" y="-517.4" font-family="Times,serif" font-size="14.00">PrivateChat</text>
<polygon fill="none" stroke="black" points="8.5,-455 8.5,-511 173.5,-511 173.5,-455 8.5,-455"/>
<text text-anchor="start" x="11.5" y="-495.4" font-family="Times,serif" font-size="14.00">name :String</text>
<text text-anchor="start" x="11.5" y="-478.6" font-family="Times,serif" font-size="14.00">id :String</text>
<text text-anchor="start" x="11.5" y="-461.8" font-family="Times,serif" font-size="14.00">unreadMessagesCounter :int</text>
</g>
<!-- CurrentUser&#45;&gt;PrivateChat -->
<g id="edge5" class="edge">
<title>CurrentUser&#45;&gt;PrivateChat</title>
<path fill="none" stroke="black" d="M237.78,-396.92C211.67,-413.95 181.38,-433.71 155.08,-450.87"/>
<text text-anchor="middle" x="117.18" y="-438.27" font-family="Times,serif" font-size="14.00">privateChat *</text>
<text text-anchor="middle" x="204.74" y="-384.32" font-family="Times,serif" font-size="14.00">currentUser</text>
</g>
<!-- CurrentUser&#45;&gt;Server -->
<g id="edge6" class="edge">
<title>CurrentUser&#45;&gt;Server</title>
<path fill="none" stroke="black" d="M322.57,-415.29C327.04,-427.3 331.65,-439.69 335.85,-450.95"/>
<text text-anchor="middle" x="313.5" y="-438.35" font-family="Times,serif" font-size="14.00">server *</text>
<text text-anchor="middle" x="289.54" y="-419.49" font-family="Times,serif" font-size="14.00">currentUser</text>
</g>
<!-- User -->
<g id="node8" class="node">
<title>User</title>
<polygon fill="none" stroke="black" points="215.5,-667 215.5,-689 334.5,-689 334.5,-667 215.5,-667"/>
<text text-anchor="start" x="261.79" y="-673.4" font-family="Times,serif" font-size="14.00">User</text>
<polygon fill="none" stroke="black" points="215.5,-577 215.5,-667 334.5,-667 334.5,-577 215.5,-577"/>
<text text-anchor="start" x="218.5" y="-651.4" font-family="Times,serif" font-size="14.00">name :String</text>
<text text-anchor="start" x="218.5" y="-634.6" font-family="Times,serif" font-size="14.00">id :String</text>
<text text-anchor="start" x="218.5" y="-617.8" font-family="Times,serif" font-size="14.00">status :boolean</text>
<text text-anchor="start" x="218.5" y="-601" font-family="Times,serif" font-size="14.00">description :String</text>
<text text-anchor="start" x="218.5" y="-584.2" font-family="Times,serif" font-size="14.00">userVolume :double</text>
</g>
<!-- CurrentUser&#45;&gt;User -->
<g id="edge7" class="edge">
<title>CurrentUser&#45;&gt;User</title>
<path fill="none" stroke="black" d="M294.92,-415.21C290.54,-461.78 284.45,-526.35 280.07,-572.89"/>
<text text-anchor="middle" x="263.16" y="-560.29" font-family="Times,serif" font-size="14.00">user *</text>
<text text-anchor="middle" x="327.96" y="-419.41" font-family="Times,serif" font-size="14.00">currentUser</text>
</g>
<!-- Message -->
<g id="node4" class="node">
<title>Message</title>
<polygon fill="none" stroke="black" points="77.5,-76.5 77.5,-98.5 173.5,-98.5 173.5,-76.5 77.5,-76.5"/>
<text text-anchor="start" x="101.01" y="-82.9" font-family="Times,serif" font-size="14.00">Message</text>
<polygon fill="none" stroke="black" points="77.5,-3.5 77.5,-76.5 173.5,-76.5 173.5,-3.5 77.5,-3.5"/>
<text text-anchor="start" x="80.5" y="-60.9" font-family="Times,serif" font-size="14.00">from :String</text>
<text text-anchor="start" x="80.5" y="-44.1" font-family="Times,serif" font-size="14.00">timestamp :long</text>
<text text-anchor="start" x="80.5" y="-27.3" font-family="Times,serif" font-size="14.00">message :String</text>
<text text-anchor="start" x="80.5" y="-10.5" font-family="Times,serif" font-size="14.00">id :String</text>
</g>
<!-- Message&#45;&gt;PrivateChat -->
<g id="edge8" class="edge">
<title>Message&#45;&gt;PrivateChat</title>
<path fill="none" stroke="black" d="M121.49,-103.03C114.52,-190.71 100.32,-369.45 93.85,-450.89"/>
<text text-anchor="middle" x="61.19" y="-438.29" font-family="Times,serif" font-size="14.00">privateChat</text>
<text text-anchor="middle" x="92.52" y="-107.23" font-family="Times,serif" font-size="14.00">message *</text>
</g>
<!-- Message&#45;&gt;ServerChannel -->
<g id="edge9" class="edge">
<title>Message&#45;&gt;ServerChannel</title>
<path fill="none" stroke="black" d="M172.02,-103.39C182.5,-114.86 193.72,-127.13 204.49,-138.91"/>
<text text-anchor="middle" x="164.06" y="-126.31" font-family="Times,serif" font-size="14.00">serverChannel</text>
<text text-anchor="middle" x="200.98" y="-107.59" font-family="Times,serif" font-size="14.00">message *</text>
</g>
<!-- Server&#45;&gt;User -->
<g id="edge11" class="edge">
<title>Server&#45;&gt;User</title>
<path fill="none" stroke="black" d="M327.77,-537.22C321.45,-548.47 314.51,-560.82 307.78,-572.79"/>
<text text-anchor="middle" x="324.69" y="-560.19" font-family="Times,serif" font-size="14.00">user *</text>
<text text-anchor="middle" x="305.42" y="-541.42" font-family="Times,serif" font-size="14.00">server *</text>
</g>
<!-- ServerChannel&#45;&gt;CurrentUser -->
<g id="edge4" class="edge">
<title>ServerChannel&#45;&gt;CurrentUser</title>
<path fill="none" stroke="black" d="M274.62,-259.1C277.81,-270.81 281.16,-283.1 284.36,-294.8"/>
<text text-anchor="middle" x="251.32" y="-282.2" font-family="Times,serif" font-size="14.00">currentUser</text>
<text text-anchor="middle" x="301.64" y="-263.3" font-family="Times,serif" font-size="14.00">channel *</text>
</g>
<!-- ServerChannel&#45;&gt;User -->
<g id="edge10" class="edge">
<title>ServerChannel&#45;&gt;User</title>
<path fill="none" stroke="black" d="M236.77,-259.14C233.34,-270.87 230.32,-283.21 228.5,-295 213.52,-392.17 237.49,-505.5 256.07,-572.86"/>
<text text-anchor="middle" x="206.51" y="-560.26" font-family="Times,serif" font-size="14.00">privilegedUsers *</text>
<text text-anchor="middle" x="203.14" y="-263.34" font-family="Times,serif" font-size="14.00">privileged *</text>
</g>
</g>
</svg>
